<svg xmlns="http://www.w3.org/2000/svg" viewBox="0 0 470 470"><rect fill="white" width="470" height="470"/><path fill="black" d="M10,10h10v10h-10zM20,10h10v10h-10zM30,10h10v10h-10zM40,10h10v10h-10zM50,10h10v10h-10zM60,10h10v10h-10zM70,10h10v10h-10zM100,10h10v10h-10zM120,10h10v10h-10zM130,10h10v10h-10zM200,10h10v10h-10zM230,10h10v10h-10zM240,10h10v10h-10zM250,10h10v10h-10zM260,10h10v10h-10zM300,10h10v10h-10zM310,10h10v10h-10zM330,10h10v10h-10zM340,10h10v10h-10zM370,10h10v10h-10zM390,10h10v10h-10zM400,10h10v10h-10zM410,10h10v10h-10zM420,10h10v10h-10zM430,10h10v10h-10zM440,10h10v10h-10zM450,10h10v10h-10zM10,20h10v10h-10zM70,20h10v10h-10zM90,20h10v10h-10zM120,20h10v10h-10zM130,20h10v10h-10zM150,20h10v10h-10zM160,20h10v10h-10zM170,20h10v10h-10zM180,20h10v10h-10zM190,20h10v10h-10zM230,20h10v10h-10zM240,20h10v10h-10zM250,20h10v10h-10zM270,20h10v10h-10zM310,20h10v10h-10zM330,20h10v10h-10zM360,20h10v10h-10zM390,20h10v10h-10zM450,20h10v10h-10zM10,30h10v10h-10zM30,30h10v10h-10zM40,30h10v10h-10zM50,30h10v10h-10zM70,30h10v10h-10zM110,30h10v10h-10zM130,30h10v10h-10zM150,30h10v10h-10zM160,30h10v10h-10zM180,30h10v10h-10zM190,30h10v10h-10zM200,30h10v10h-10zM270,30h10v10h-10zM280,30h10v10h-10zM290,30h10v10h-10zM300,30h10v10h-10zM340,30h10v10h-10zM360,30h10v10h-10zM390,30h10v10h-10zM410,30h10v10h-10zM420,30h10v10h-10zM430,30h10v10h-10zM450,30h10v10h-10zM10,40h10v10h-10zM30,40h10v10h-10zM40,40h10v10h-10zM50,40h10v10h-10zM70,40h10v10h-10zM90,40h10v10h-10zM100,40h10v10h-10zM110,40h10v10h-10zM130,40h10v10h-10zM140,40h10v10h-10zM160,40h10v10h-10zM190,40h10v10h-10zM200,40h10v10h-10zM210,40h10v10h-10zM220,40h10v10h-10zM230,40h10v10h-10zM260,40h10v10h-10zM310,40h10v10h-10zM320,40h10v10h-10zM360,40h10v10h-10zM370,40h10v10h-10zM390,40h10v10h-10zM410,40h10v10h-10zM420,40h10v10h-10zM430,40h10v10h-10zM450,40h10v10h-10zM10,50h10v10h-10zM30,50h10v10h-10zM40,50h10v10h-10zM50,50h10v10h-10zM70,50h10v10h-10zM100,50h10v10h-10zM110,50h10v10h-10zM130,50h10v10h-10zM160,50h10v10h-10zM180,50h10v10h-10zM210,50h10v10h-10zM220,50h10v10h-10zM230,50h10v10h-10zM240,50h10v10h-10zM250,50h10v10h-10zM260,50h10v10h-10zM280,50h10v10h-10zM310,50h10v10h-10zM330,50h10v10h-10zM350,50h10v10h-10zM360,50h10v10h-10zM370,50h10v10h-10zM390,50h10v10h-10zM410,50h10v10h-10zM420,50h10v10h-10zM430,50h10v10h-10zM450,50h10v10h-10zM10,60h10v10h-10zM70,60h10v10h-10zM90,60h10v10h-10zM110,60h10v10h-10zM120,60h10v10h-10zM140,60h10v10h-10zM180,60h10v10h-10zM190,60h10v10h-10zM210,60h10v10h-10zM250,60h10v10h-10zM270,60h10v10h-10zM290,60h10v10h-10zM300,60h10v10h-10zM340,60h10v10h-10zM390,60h10v10h-10zM450,60h10v10h-10zM10,70h10v10h-10zM20,70h10v10h-10zM30,70h10v10h-10zM40,70h10v10h-10zM50,70h10v10h-10zM60,70h10v10h-10zM70,70h10v10h-10zM90,70h10v10h-10zM110,70h10v10h-10zM130,70h10v10h-10zM150,70h10v10h-10zM170,70h10v10h-10zM190,70h10v10h-10zM210,70h10v10h-10zM230,70h10v10h-10zM250,70h10v10h-10zM270,70h10v10h-10zM290,70h10v10h-10zM310,70h10v10h-10zM330,70h10v10h-10zM350,70h10v10h-10zM370,70h10v10h-10zM390,70h10v10h-10zM400,70h10v10h-10zM410,70h10v10h-10zM420,70h10v10h-10zM430,70h10v10h-10zM440,70h10v10h-10zM450,70h10v10h-10zM100,80h10v10h-10zM110,80h10v10h-10zM170,80h10v10h-10zM180,80h10v10h-10zM190,80h10v10h-10zM210,80h10v10h-10zM250,80h10v10h-10zM260,80h10v10h-10zM270,80h10v10h-10zM290,80h10v10h-10zM300,80h10v10h-10zM320,80h10v10h-10zM330,80h10v10h-10zM350,80h10v10h-10zM370,80h10v10h-10zM10,90h10v10h-10zM20,90h10v10h-10zM30,90h10v10h-10zM40,90h10v10h-10zM50,90h10v10h-10zM70,90h10v10h-10zM80,90h10v10h-10zM90,90h10v10h-10zM120,90h10v10h-10zM190,90h10v10h-10zM210,90h10v10h-10zM220,90h10v10h-10zM230,90h10v10h-10zM240,90h10v10h-10zM250,90h10v10h-10zM300,90h10v10h-10zM310,90h10v10h-10zM350,90h10v10h-10zM370,90h10v10h-10zM380,90h10v10h-10zM400,90h10v10h-10zM420,90h10v10h-10zM440,90h10v10h-10zM10,100h10v10h-10zM40,100h10v10h-10zM50,100h10v10h-10zM90,100h10v10h-10zM120,100h10v10h-10zM190,100h10v10h-10zM210,100h10v10h-10zM280,100h10v10h-10zM290,100h10v10h-10zM300,100h10v10h-10zM310,100h10v10h-10zM330,100h10v10h-10zM360,100h10v10h-10zM370,100h10v10h-10zM400,100h10v10h-10zM420,100h10v10h-10zM430,100h10v10h-10zM20,110h10v10h-10zM40,110h10v10h-10zM70,110h10v10h-10zM110,110h10v10h-10zM120,110h10v10h-10zM130,110h10v10h-10zM140,110h10v10h-10zM180,110h10v10h-10zM190,110h10v10h-10zM210,110h10v10h-10zM220,110h10v10h-10zM240,110h10v10h-10zM250,110h10v10h-10zM270,110h10v10h-10zM280,110h10v10h-10zM290,110h10v10h-10zM320,110h10v10h-10zM330,110h10v10h-10zM340,110h10v10h-10zM360,110h10v10h-10zM370,110h10v10h-10zM430,110h10v10h-10zM440,110h10v10h-10zM40,120h10v10h-10zM50,120h10v10h-10zM60,120h10v10h-10zM90,120h10v10h-10zM120,120h10v10h-10zM130,120h10v10h-10zM140,120h10v10h-10zM160,120h10v10h-10zM180,120h10v10h-10zM200,120h10v10h-10zM240,120h10v10h-10zM260,120h10v10h-10zM270,120h10v10h-10zM280,120h10v10h-10zM290,120h10v10h-10zM320,120h10v10h-10zM340,120h10v10h-10zM350,120h10v10h-10zM400,120h10v10h-10zM420,120h10v10h-10zM430,120h10v10h-10zM440,120h10v10h-10zM450,120h10v10h-10zM40,130h10v10h-10zM60,130h10v10h-10zM70,130h10v10h-10zM80,130h10v10h-10zM90,130h10v10h-10zM130,130h10v10h-10zM140,130h10v10h-10zM160,130h10v10h-10zM190,130h10v10h-10zM200,130h10v10h-10zM220,130h10v10h-10zM250,130h10v10h-10zM270,130h10v10h-10zM320,130h10v10h-10zM380,130h10v10h-10zM400,130h10v10h-10zM410,130h10v10h-10zM440,130h10v10h-10zM30,140h10v10h-10zM40,140h10v10h-10zM60,140h10v10h-10zM160,140h10v10h-10zM180,140h10v10h-10zM200,140h10v10h-10zM210,140h10v10h-10zM230,140h10v10h-10zM250,140h10v10h-10zM260,140h10v10h-10zM290,140h10v10h-10zM300,140h10v10h-10zM310,140h10v10h-10zM320,140h10v10h-10zM360,140h10v10h-10zM370,140h10v10h-10zM380,140h10v10h-10zM400,140h10v10h-10zM450,140h10v10h-10zM20,150h10v10h-10zM30,150h10v10h-10zM40,150h10v10h-10zM60,150h10v10h-10zM70,150h10v10h-10zM90,150h10v10h-10zM130,150h10v10h-10zM140,150h10v10h-10zM150,150h10v10h-10zM180,150h10v10h-10zM200,150h10v10h-10zM210,150h10v10h-10zM250,150h10v10h-10zM270,150h10v10h-10zM290,150h10v10h-10zM320,150h10v10h-10zM340,150h10v10h-10zM350,150h10v10h-10zM360,150h10v10h-10zM370,150h10v10h-10zM390,150h10v10h-10zM410,150h10v10h-10zM420,150h10v10h-10zM430,150h10v10h-10zM440,150h10v10h-10zM10,160h10v10h-10zM20,160h10v10h-10zM30,160h10v10h-10zM40,160h10v10h-10zM50,160h10v10h-10zM100,160h10v10h-10zM110,160h10v10h-10zM130,160h10v10h-10zM140,160h10v10h-10zM180,160h10v10h-10zM190,160h10v10h-10zM220,160h10v10h-10zM240,160h10v10h-10zM250,160h10v10h-10zM290,160h10v10h-10zM310,160h10v10h-10zM350,160h10v10h-10zM360,160h10v10h-10zM380,160h10v10h-10zM390,160h10v10h-10zM400,160h10v10h-10zM420,160h10v10h-10zM430,160h10v10h-10zM440,160h10v10h-10zM10,170h10v10h-10zM30,170h10v10h-10zM40,170h10v10h-10zM60,170h10v10h-10zM70,170h10v10h-10zM90,170h10v10h-10zM120,170h10v10h-10zM160,170h10v10h-10zM190,170h10v10h-10zM210,170h10v10h-10zM220,170h10v10h-10zM230,170h10v10h-10zM240,170h10v10h-10zM300,170h10v10h-10zM310,170h10v10h-10zM320,170h10v10h-10zM340,170h10v10h-10zM350,170h10v10h-10zM370,170h10v10h-10zM380,170h10v10h-10zM430,170h10v10h-10zM450,170h10v10h-10zM20,180h10v10h-10zM30,180h10v10h-10zM40,180h10v10h-10zM60,180h10v10h-10zM120,180h10v10h-10zM190,180h10v10h-10zM260,180h10v10h-10zM280,180h10v10h-10zM300,180h10v10h-10zM310,180h10v10h-10zM330,180h10v10h-10zM340,180h10v10h-10zM360,180h10v10h-10zM370,180h10v10h-10zM400,180h10v10h-10zM410,180h10v10h-10zM430,180h10v10h-10zM20,190h10v10h-10zM50,190h10v10h-10zM70,190h10v10h-10zM90,190h10v10h-10zM100,190h10v10h-10zM110,190h10v10h-10zM140,190h10v10h-10zM150,190h10v10h-10zM170,190h10v10h-10zM190,190h10v10h-10zM210,190h10v10h-10zM240,190h10v10h-10zM250,190h10v10h-10zM300,190h10v10h-10zM320,190h10v10h-10zM350,190h10v10h-10zM360,190h10v10h-10zM400,190h10v10h-10zM420,190h10v10h-10zM430,190h10v10h-10zM440,190h10v10h-10zM20,200h10v10h-10zM30,200h10v10h-10zM40,200h10v10h-10zM50,200h10v10h-10zM60,200h10v10h-10zM90,200h10v10h-10zM100,200h10v10h-10zM120,200h10v10h-10zM130,200h10v10h-10zM140,200h10v10h-10zM160,200h10v10h-10zM180,200h10v10h-10zM190,200h10v10h-10zM200,200h10v10h-10zM270,200h10v10h-10zM280,200h10v10h-10zM290,200h10v10h-10zM320,200h10v10h-10zM350,200h10v10h-10zM370,200h10v10h-10zM390,200h10v10h-10zM400,200h10v10h-10zM410,200h10v10h-10zM420,200h10v10h-10zM430,200h10v10h-10zM440,200h10v10h-10zM30,210h10v10h-10zM50,210h10v10h-10zM60,210h10v10h-10zM70,210h10v10h-10zM80,210h10v10h-10zM90,210h10v10h-10zM110,210h10v10h-10zM120,210h10v10h-10zM130,210h10v10h-10zM140,210h10v10h-10zM170,210h10v10h-10zM190,210h10v10h-10zM200,210h10v10h-10zM210,210h10v10h-10zM220,210h10v10h-10zM230,210h10v10h-10zM240,210h10v10h-10zM250,210h10v10h-10zM260,210h10v10h-10zM270,210h10v10h-10zM280,210h10v10h-10zM310,210h10v10h-10zM320,210h10v10h-10zM340,210h10v10h-10zM370,210h10v10h-10zM380,210h10v10h-10zM390,210h10v10h-10zM400,210h10v10h-10zM410,210h10v10h-10zM440,210h10v10h-10zM10,220h10v10h-10zM20,220h10v10h-10zM30,220h10v10h-10zM40,220h10v10h-10zM50,220h10v10h-10zM90,220h10v10h-10zM100,220h10v10h-10zM130,220h10v10h-10zM160,220h10v10h-10zM180,220h10v10h-10zM210,220h10v10h-10zM250,220h10v10h-10zM260,220h10v10h-10zM290,220h10v10h-10zM300,220h10v10h-10zM310,220h10v10h-10zM330,220h10v10h-10zM340,220h10v10h-10zM360,220h10v10h-10zM370,220h10v10h-10zM410,220h10v10h-10zM420,220h10v10h-10zM450,220h10v10h-10zM10,230h10v10h-10zM30,230h10v10h-10zM40,230h10v10h-10zM50,230h10v10h-10zM70,230h10v10h-10zM90,230h10v10h-10zM100,230h10v10h-10zM110,230h10v10h-10zM120,230h10v10h-10zM150,230h10v10h-10zM200,230h10v10h-10zM210,230h10v10h-10zM230,230h10v10h-10zM250,230h10v10h-10zM270,230h10v10h-10zM290,230h10v10h-10zM300,230h10v10h-10zM330,230h10v10h-10zM340,230h10v10h-10zM350,230h10v10h-10zM360,230h10v10h-10zM370,230h10v10h-10zM390,230h10v10h-10zM410,230h10v10h-10zM440,230h10v10h-10zM10,240h10v10h-10zM20,240h10v10h-10zM30,240h10v10h-10zM50,240h10v10h-10zM90,240h10v10h-10zM150,240h10v10h-10zM210,240h10v10h-10zM250,240h10v10h-10zM260,240h10v10h-10zM280,240h10v10h-10zM300,240h10v10h-10zM310,240h10v10h-10zM340,240h10v10h-10zM350,240h10v10h-10zM370,240h10v10h-10zM410,240h10v10h-10zM430,240h10v10h-10zM50,250h10v10h-10zM60,250h10v10h-10zM70,250h10v10h-10zM80,250h10v10h-10zM90,250h10v10h-10zM110,250h10v10h-10zM130,250h10v10h-10zM160,250h10v10h-10zM180,250h10v10h-10zM190,250h10v10h-10zM200,250h10v10h-10zM210,250h10v10h-10zM220,250h10v10h-10zM230,250h10v10h-10zM240,250h10v10h-10zM250,250h10v10h-10zM270,250h10v10h-10zM300,250h10v10h-10zM310,250h10v10h-10zM320,250h10v10h-10zM340,250h10v10h-10zM350,250h10v10h-10zM360,250h10v10h-10zM370,250h10v10h-10zM380,250h10v10h-10zM390,250h10v10h-10zM400,250h10v10h-10zM410,250h10v10h-10zM420,250h10v10h-10zM440,250h10v10h-10zM450,250h10v10h-10zM20,260h10v10h-10zM40,260h10v10h-10zM100,260h10v10h-10zM110,260h10v10h-10zM120,260h10v10h-10zM190,260h10v10h-10zM200,260h10v10h-10zM220,260h10v10h-10zM240,260h10v10h-10zM260,260h10v10h-10zM280,260h10v10h-10zM300,260h10v10h-10zM310,260h10v10h-10zM330,260h10v10h-10zM340,260h10v10h-10zM360,260h10v10h-10zM380,260h10v10h-10zM390,260h10v10h-10zM400,260h10v10h-10zM410,260h10v10h-10zM420,260h10v10h-10zM430,260h10v10h-10zM10,270h10v10h-10zM30,270h10v10h-10zM50,270h10v10h-10zM60,270h10v10h-10zM70,270h10v10h-10zM80,270h10v10h-10zM90,270h10v10h-10zM110,270h10v10h-10zM160,270h10v10h-10zM170,270h10v10h-10zM190,270h10v10h-10zM230,270h10v10h-10zM250,270h10v10h-10zM270,270h10v10h-10zM280,270h10v10h-10zM330,270h10v10h-10zM350,270h10v10h-10zM380,270h10v10h-10zM410,270h10v10h-10zM430,270h10v10h-10zM440,270h10v10h-10zM10,280h10v10h-10zM30,280h10v10h-10zM50,280h10v10h-10zM60,280h10v10h-10zM90,280h10v10h-10zM100,280h10v10h-10zM120,280h10v10h-10zM140,280h10v10h-10zM180,280h10v10h-10zM200,280h10v10h-10zM210,280h10v10h-10zM230,280h10v10h-10zM250,280h10v10h-10zM260,280h10v10h-10zM280,280h10v10h-10zM290,280h10v10h-10zM300,280h10v10h-10zM310,280h10v10h-10zM350,280h10v10h-10zM380,280h10v10h-10zM390,280h10v10h-10zM410,280h10v10h-10zM420,280h10v10h-10zM430,280h10v10h-10zM450,280h10v10h-10zM10,290h10v10h-10zM40,290h10v10h-10zM70,290h10v10h-10zM80,290h10v10h-10zM90,290h10v10h-10zM100,290h10v10h-10zM110,290h10v10h-10zM140,290h10v10h-10zM170,290h10v10h-10zM190,290h10v10h-10zM240,290h10v10h-10zM250,290h10v10h-10zM260,290h10v10h-10zM280,290h10v10h-10zM310,290h10v10h-10zM340,290h10v10h-10zM350,290h10v10h-10zM370,290h10v10h-10zM390,290h10v10h-10zM420,290h10v10h-10zM10,300h10v10h-10zM20,300h10v10h-10zM30,300h10v10h-10zM80,300h10v10h-10zM110,300h10v10h-10zM120,300h10v10h-10zM130,300h10v10h-10zM160,300h10v10h-10zM180,300h10v10h-10zM200,300h10v10h-10zM210,300h10v10h-10zM220,300h10v10h-10zM230,300h10v10h-10zM260,300h10v10h-10zM280,300h10v10h-10zM290,300h10v10h-10zM300,300h10v10h-10zM310,300h10v10h-10zM320,300h10v10h-10zM360,300h10v10h-10zM370,300h10v10h-10zM390,300h10v10h-10zM450,300h10v10h-10zM20,310h10v10h-10zM50,310h10v10h-10zM70,310h10v10h-10zM90,310h10v10h-10zM110,310h10v10h-10zM120,310h10v10h-10zM130,310h10v10h-10zM140,310h10v10h-10zM150,310h10v10h-10zM160,310h10v10h-10zM180,310h10v10h-10zM190,310h10v10h-10zM210,310h10v10h-10zM230,310h10v10h-10zM270,310h10v10h-10zM280,310h10v10h-10zM290,310h10v10h-10zM300,310h10v10h-10zM320,310h10v10h-10zM330,310h10v10h-10zM340,310h10v10h-10zM350,310h10v10h-10zM370,310h10v10h-10zM380,310h10v10h-10zM440,310h10v10h-10zM10,320h10v10h-10zM20,320h10v10h-10zM60,320h10v10h-10zM100,320h10v10h-10zM120,320h10v10h-10zM150,320h10v10h-10zM180,320h10v10h-10zM190,320h10v10h-10zM200,320h10v10h-10zM210,320h10v10h-10zM220,320h10v10h-10zM250,320h10v10h-10zM270,320h10v10h-10zM280,320h10v10h-10zM290,320h10v10h-10zM300,320h10v10h-10zM360,320h10v10h-10zM380,320h10v10h-10zM400,320h10v10h-10zM420,320h10v10h-10zM430,320h10v10h-10zM440,320h10v10h-10zM10,330h10v10h-10zM20,330h10v10h-10zM30,330h10v10h-10zM40,330h10v10h-10zM70,330h10v10h-10zM90,330h10v10h-10zM120,330h10v10h-10zM130,330h10v10h-10zM140,330h10v10h-10zM150,330h10v10h-10zM180,330h10v10h-10zM190,330h10v10h-10zM200,330h10v10h-10zM210,330h10v10h-10zM220,330h10v10h-10zM260,330h10v10h-10zM280,330h10v10h-10zM310,330h10v10h-10zM340,330h10v10h-10zM370,330h10v10h-10zM400,330h10v10h-10zM410,330h10v10h-10zM420,330h10v10h-10zM430,330h10v10h-10zM440,330h10v10h-10zM20,340h10v10h-10zM30,340h10v10h-10zM50,340h10v10h-10zM80,340h10v10h-10zM90,340h10v10h-10zM130,340h10v10h-10zM190,340h10v10h-10zM200,340h10v10h-10zM230,340h10v10h-10zM240,340h10v10h-10zM260,340h10v10h-10zM300,340h10v10h-10zM310,340h10v10h-10zM320,340h10v10h-10zM340,340h10v10h-10zM370,340h10v10h-10zM390,340h10v10h-10zM410,340h10v10h-10zM50,350h10v10h-10zM70,350h10v10h-10zM90,350h10v10h-10zM100,350h10v10h-10zM120,350h10v10h-10zM130,350h10v10h-10zM150,350h10v10h-10zM160,350h10v10h-10zM170,350h10v10h-10zM180,350h10v10h-10zM190,350h10v10h-10zM210,350h10v10h-10zM220,350h10v10h-10zM230,350h10v10h-10zM270,350h10v10h-10zM280,350h10v10h-10zM320,350h10v10h-10zM330,350h10v10h-10zM340,350h10v10h-10zM350,350h10v10h-10zM380,350h10v10h-10zM400,350h10v10h-10zM440,350h10v10h-10zM20,360h10v10h-10zM30,360h10v10h-10zM40,360h10v10h-10zM50,360h10v10h-10zM80,360h10v10h-10zM90,360h10v10h-10zM130,360h10v10h-10zM140,360h10v10h-10zM160,360h10v10h-10zM170,360h10v10h-10zM200,360h10v10h-10zM240,360h10v10h-10zM250,360h10v10h-10zM260,360h10v10h-10zM290,360h10v10h-10zM300,360h10v10h-10zM310,360h10v10h-10zM340,360h10v10h-10zM390,360h10v10h-10zM410,360h10v10h-10zM420,360h10v10h-10zM430,360h10v10h-10zM440,360h10v10h-10zM10,370h10v10h-10zM40,370h10v10h-10zM50,370h10v10h-10zM70,370h10v10h-10zM90,370h10v10h-10zM140,370h10v10h-10zM170,370h10v10h-10zM190,370h10v10h-10zM200,370h10v10h-10zM210,370h10v10h-10zM220,370h10v10h-10zM230,370h10v10h-10zM240,370h10v10h-10zM250,370h10v10h-10zM280,370h10v10h-10zM310,370h10v10h-10zM350,370h10v10h-10zM370,370h10v10h-10zM380,370h10v10h-10zM390,370h10v10h-10zM400,370h10v10h-10zM410,370h10v10h-10zM420,370h10v10h-10zM440,370h10v10h-10zM90,380h10v10h-10zM100,380h10v10h-10zM110,380h10v10h-10zM120,380h10v10h-10zM130,380h10v10h-10zM160,380h10v10h-10zM180,380h10v10h-10zM210,380h10v10h-10zM250,380h10v10h-10zM260,380h10v10h-10zM290,380h10v10h-10zM300,380h10v10h-10zM310,380h10v10h-10zM320,380h10v10h-10zM360,380h10v10h-10zM370,380h10v10h-10zM410,380h10v10h-10zM420,380h10v10h-10zM430,380h10v10h-10zM440,380h10v10h-10zM450,380h10v10h-10zM10,390h10v10h-10zM20,390h10v10h-10zM30,390h10v10h-10zM40,390h10v10h-10zM50,390h10v10h-10zM60,390h10v10h-10zM70,390h10v10h-10zM90,390h10v10h-10zM100,390h10v10h-10zM180,390h10v10h-10zM200,390h10v10h-10zM210,390h10v10h-10zM230,390h10v10h-10zM250,390h10v10h-10zM270,390h10v10h-10zM280,390h10v10h-10zM300,390h10v10h-10zM320,390h10v10h-10zM330,390h10v10h-10zM340,390h10v10h-10zM350,390h10v10h-10zM370,390h10v10h-10zM390,390h10v10h-10zM410,390h10v10h-10zM440,390h10v10h-10zM10,400h10v10h-10zM70,400h10v10h-10zM110,400h10v10h-10zM140,400h10v10h-10zM210,400h10v10h-10zM250,400h10v10h-10zM270,400h10v10h-10zM280,400h10v10h-10zM290,400h10v10h-10zM350,400h10v10h-10zM360,400h10v10h-10zM370,400h10v10h-10zM410,400h10v10h-10zM420,400h10v10h-10zM430,400h10v10h-10zM440,400h10v10h-10zM10,410h10v10h-10zM30,410h10v10h-10zM40,410h10v10h-10zM50,410h10v10h-10zM70,410h10v10h-10zM90,410h10v10h-10zM110,410h10v10h-10zM130,410h10v10h-10zM170,410h10v10h-10zM180,410h10v10h-10zM190,410h10v10h-10zM210,410h10v10h-10zM220,410h10v10h-10zM230,410h10v10h-10zM240,410h10v10h-10zM250,410h10v10h-10zM260,410h10v10h-10zM270,410h10v10h-10zM300,410h10v10h-10zM310,410h10v10h-10zM340,410h10v10h-10zM350,410h10v10h-10zM370,410h10v10h-10zM380,410h10v10h-10zM390,410h10v10h-10zM400,410h10v10h-10zM410,410h10v10h-10zM430,410h10v10h-10zM10,420h10v10h-10zM30,420h10v10h-10zM40,420h10v10h-10zM50,420h10v10h-10zM70,420h10v10h-10zM90,420h10v10h-10zM100,420h10v10h-10zM110,420h10v10h-10zM120,420h10v10h-10zM140,420h10v10h-10zM160,420h10v10h-10zM190,420h10v10h-10zM210,420h10v10h-10zM260,420h10v10h-10zM280,420h10v10h-10zM300,420h10v10h-10zM310,420h10v10h-10zM340,420h10v10h-10zM370,420h10v10h-10zM380,420h10v10h-10zM400,420h10v10h-10zM420,420h10v10h-10zM430,420h10v10h-10zM440,420h10v10h-10zM10,430h10v10h-10zM30,430h10v10h-10zM40,430h10v10h-10zM50,430h10v10h-10zM70,430h10v10h-10zM90,430h10v10h-10zM110,430h10v10h-10zM140,430h10v10h-10zM150,430h10v10h-10zM160,430h10v10h-10zM180,430h10v10h-10zM190,430h10v10h-10zM200,430h10v10h-10zM210,430h10v10h-10zM220,430h10v10h-10zM230,430h10v10h-10zM250,430h10v10h-10zM260,430h10v10h-10zM270,430h10v10h-10zM350,430h10v10h-10zM360,430h10v10h-10zM370,430h10v10h-10zM390,430h10v10h-10zM420,430h10v10h-10zM430,430h10v10h-10zM450,430h10v10h-10zM10,440h10v10h-10zM70,440h10v10h-10zM90,440h10v10h-10zM100,440h10v10h-10zM110,440h10v10h-10zM120,440h10v10h-10zM190,440h10v10h-10zM210,440h10v10h-10zM220,440h10v10h-10zM230,440h10v10h-10zM270,440h10v10h-10zM290,440h10v10h-10zM310,440h10v10h-10zM330,440h10v10h-10zM350,440h10v10h-10zM360,440h10v10h-10zM370,440h10v10h-10zM380,440h10v10h-10zM410,440h10v10h-10zM420,440h10v10h-10zM430,440h10v10h-10zM10,450h10v10h-10zM20,450h10v10h-10zM30,450h10v10h-10zM40,450h10v10h-10zM50,450h10v10h-10zM60,450h10v10h-10zM70,450h10v10h-10zM90,450h10v10h-10zM100,450h10v10h-10zM120,450h10v10h-10zM170,450h10v10h-10zM190,450h10v10h-10zM220,450h10v10h-10zM230,450h10v10h-10zM240,450h10v10h-10zM250,450h10v10h-10zM260,450h10v10h-10zM310,450h10v10h-10zM320,450h10v10h-10zM350,450h10v10h-10zM400,450h10v10h-10zM440,450h10v10h-10z"/></svg>